# xmcd
#
# Track frame offsets:
#	150
#	11018
#	24316
#	32311
#	41829
#	51399
#	60384
#	70847
#	79682
#	88097
#
# Disc length: 1314 seconds
#
# Revision: 1
# Processed by: cddbd v1.5.2PL0 Copyright (c) Steve Scherf et al.
# Submitted via: audiograbber 1.83.01
#
DISCID=7505200a
DTITLE=Sonny James - The Best Of
DYEAR=1969
DGENRE=Country
TTITLE0=A World Of Our Own
TTITLE1=It's The Little Things
TTITLE2=Invisible Tears
TTITLE3=Least Of All
TTITLE4=Love Is A Happy Song
TTITLE5=Heaven Says Hello
TTITLE6=Need You
TTITLE7=Twenty Feet Of Muddy Water
TTITLE8=Just Ask Your Heart
TTITLE9=I'll Never Find Another You
EXTD=
EXTT0=
EXTT1=
EXTT2=
EXTT3=
EXTT4=
EXTT5=
EXTT6=
EXTT7=
EXTT8=
EXTT9=
PLAYORDER=
